<mxfile host="app.diagrams.net" agent="Mozilla/5.0 (Macintosh; Intel Mac OS X 10_15_7) AppleWebKit/605.1.15 (KHTML, like Gecko) Version/17.6 Safari/605.1.15" version="25.0.3">
  <diagram name="Page-1" id="qNNuO2OCBvc4yOoTKTM1">
    <mxGraphModel grid="1" page="1" gridSize="10" guides="1" tooltips="1" connect="1" arrows="1" fold="1" pageScale="1" pageWidth="1169" pageHeight="1654" math="0" shadow="0">
      <root>
        <mxCell id="0" />
        <mxCell id="1" parent="0" />
        <mxCell id="MqxBj5V46uGnDJzhe5n0-21" style="edgeStyle=orthogonalEdgeStyle;rounded=0;orthogonalLoop=1;jettySize=auto;html=1;entryX=0;entryY=0.5;entryDx=0;entryDy=0;endArrow=open;endFill=0;" edge="1" parent="1" source="-fuKuJdiH953JOOcqDBH-1" target="MqxBj5V46uGnDJzhe5n0-20">
          <mxGeometry relative="1" as="geometry" />
        </mxCell>
        <mxCell id="-fuKuJdiH953JOOcqDBH-1" value="Receiver&amp;lt;IngoingMessage&amp;gt;" style="swimlane;fontStyle=0;childLayout=stackLayout;horizontal=1;startSize=26;fillColor=none;horizontalStack=0;resizeParent=1;resizeParentMax=0;resizeLast=0;collapsible=1;marginBottom=0;whiteSpace=wrap;html=1;" vertex="1" parent="1">
          <mxGeometry x="220" y="287" width="330" height="130" as="geometry" />
        </mxCell>
        <mxCell id="-fuKuJdiH953JOOcqDBH-2" value="+ Service service" style="text;strokeColor=none;fillColor=none;align=left;verticalAlign=top;spacingLeft=4;spacingRight=4;overflow=hidden;rotatable=0;points=[[0,0.5],[1,0.5]];portConstraint=eastwest;whiteSpace=wrap;html=1;" vertex="1" parent="-fuKuJdiH953JOOcqDBH-1">
          <mxGeometry y="26" width="330" height="26" as="geometry" />
        </mxCell>
        <mxCell id="MqxBj5V46uGnDJzhe5n0-42" value="+ DatabaseConnector database" style="text;strokeColor=none;fillColor=none;align=left;verticalAlign=top;spacingLeft=4;spacingRight=4;overflow=hidden;rotatable=0;points=[[0,0.5],[1,0.5]];portConstraint=eastwest;whiteSpace=wrap;html=1;" vertex="1" parent="-fuKuJdiH953JOOcqDBH-1">
          <mxGeometry y="52" width="330" height="26" as="geometry" />
        </mxCell>
        <mxCell id="-fuKuJdiH953JOOcqDBH-3" value="+ Modifiable modifier" style="text;strokeColor=none;fillColor=none;align=left;verticalAlign=top;spacingLeft=4;spacingRight=4;overflow=hidden;rotatable=0;points=[[0,0.5],[1,0.5]];portConstraint=eastwest;whiteSpace=wrap;html=1;" vertex="1" parent="-fuKuJdiH953JOOcqDBH-1">
          <mxGeometry y="78" width="330" height="26" as="geometry" />
        </mxCell>
        <mxCell id="-fuKuJdiH953JOOcqDBH-4" value="- void onMesageReceived(route, replyTo, corrId, message)" style="text;strokeColor=default;fillColor=none;align=left;verticalAlign=top;spacingLeft=4;spacingRight=4;overflow=hidden;rotatable=0;points=[[0,0.5],[1,0.5]];portConstraint=eastwest;whiteSpace=wrap;html=1;" vertex="1" parent="-fuKuJdiH953JOOcqDBH-1">
          <mxGeometry y="104" width="330" height="26" as="geometry" />
        </mxCell>
        <mxCell id="MqxBj5V46uGnDJzhe5n0-20" value="«interface»&lt;br&gt;&lt;b&gt;Modifiable&lt;/b&gt;&lt;div style=&quot;text-align: left;&quot;&gt;&lt;br&gt;&lt;/div&gt;&lt;div style=&quot;text-align: left;&quot;&gt;- void modify(DatabaseConnector, IngoingMessage, Service)&lt;/div&gt;" style="html=1;whiteSpace=wrap;" vertex="1" parent="1">
          <mxGeometry x="673.75" y="312" width="336.25" height="80" as="geometry" />
        </mxCell>
        <mxCell id="MqxBj5V46uGnDJzhe5n0-26" style="edgeStyle=orthogonalEdgeStyle;rounded=0;orthogonalLoop=1;jettySize=auto;html=1;entryX=0.5;entryY=1;entryDx=0;entryDy=0;endArrow=block;endFill=0;dashed=1;" edge="1" parent="1" source="MqxBj5V46uGnDJzhe5n0-22" target="MqxBj5V46uGnDJzhe5n0-20">
          <mxGeometry relative="1" as="geometry" />
        </mxCell>
        <mxCell id="MqxBj5V46uGnDJzhe5n0-22" value="Modify Validity" style="swimlane;fontStyle=0;childLayout=stackLayout;horizontal=1;startSize=26;fillColor=none;horizontalStack=0;resizeParent=1;resizeParentMax=0;resizeLast=0;collapsible=1;marginBottom=0;whiteSpace=wrap;html=1;" vertex="1" parent="1">
          <mxGeometry x="658.75" y="510" width="366.25" height="52" as="geometry" />
        </mxCell>
        <mxCell id="MqxBj5V46uGnDJzhe5n0-23" value="- void modify(DatabaseConnector, Ingoing Message, Service)" style="text;strokeColor=none;fillColor=none;align=left;verticalAlign=top;spacingLeft=4;spacingRight=4;overflow=hidden;rotatable=0;points=[[0,0.5],[1,0.5]];portConstraint=eastwest;whiteSpace=wrap;html=1;" vertex="1" parent="MqxBj5V46uGnDJzhe5n0-22">
          <mxGeometry y="26" width="366.25" height="26" as="geometry" />
        </mxCell>
      </root>
    </mxGraphModel>
  </diagram>
</mxfile>
